<svg width="50" height="50" viewBox="0 0 50 50" fill="none" xmlns="http://www.w3.org/2000/svg">
<path d="M4.39453 29.3945C4.39453 32.6305 7.0179 35.2539 10.2539 35.2539C13.4899 35.2539 16.1133 32.6305 16.1133 29.3945C16.1133 26.1585 13.4899 23.5352 10.2539 23.5352C7.0179 23.5352 4.39453 26.1585 4.39453 29.3945ZM11.7161 29.3945C11.7161 30.2036 11.0603 30.8594 10.2512 30.8594C9.44214 30.8594 8.78639 30.2036 8.78639 29.3945C8.78639 28.5854 9.44214 27.9297 10.2512 27.9297C11.0603 27.9297 11.7161 28.5854 11.7161 29.3945Z" fill="#F37021"/>
<path d="M1.46484 48.4375H19.043C19.8521 48.4375 20.5078 47.7817 20.5078 46.9726V45.5078C20.5078 43.8896 19.1963 42.5781 17.5781 42.5781V34.235C16.003 36.6104 13.3114 38.1836 10.2539 38.1836C7.19643 38.1836 4.50478 36.6104 2.92969 34.235V42.5781C1.31149 42.5781 0 43.8896 0 45.5078V46.9726C0 47.7817 0.655746 48.4375 1.46484 48.4375Z" fill="#F37021"/>
<path d="M1.46484 16.2109H2.92969V24.5541C4.50478 22.1786 7.19643 20.6055 10.2539 20.6055C13.3114 20.6055 16.003 22.1786 17.5781 24.5541V16.2109H19.043C19.8521 16.2109 20.5078 15.5552 20.5078 14.7461V13.2812C20.5078 11.6631 19.1963 10.3516 17.5781 10.3516H2.92969C1.31149 10.3516 0 11.6631 0 13.2812V14.7461C0 15.5552 0.655746 16.2109 1.46484 16.2109Z" fill="#F37021"/>
<path d="M10.2539 1.5625C8.63571 1.5625 7.32422 2.87399 7.32422 4.49219V7.42188H13.1836V4.49219C13.1836 2.87399 11.8721 1.5625 10.2539 1.5625Z" fill="#F37021"/>
<path d="M48.5352 19.1406H39.7461C38.9366 19.1406 38.2812 19.796 38.2812 20.6055C38.2812 21.4149 38.9366 22.0703 39.7461 22.0703H41.2109V38.1836C41.2109 39.7987 39.8964 41.1133 38.2812 41.1133C36.6661 41.1133 35.3516 39.7987 35.3516 38.1836V35.2539C35.3516 30.4073 31.4091 26.4648 26.5625 26.4648V23.5352C26.5625 22.7257 25.9071 22.0703 25.0977 22.0703H20.5078V36.7188H25.0977C25.9071 36.7188 26.5625 36.0634 26.5625 35.2539V32.3242C28.1776 32.3242 29.4922 33.6388 29.4922 35.2539V38.1836C29.4922 43.0302 33.4347 46.9727 38.2812 46.9727C43.1278 46.9727 47.0703 43.0302 47.0703 38.1836V22.0703H48.5352C49.3446 22.0703 50 21.4149 50 20.6055C50 19.796 49.3446 19.1406 48.5352 19.1406Z" fill="#F37021"/>
<path d="M48.5352 5.95703C48.5352 5.14755 47.8798 4.49219 47.0703 4.49219H41.2109C40.4015 4.49219 39.7461 5.14755 39.7461 5.95703C39.7461 6.76651 40.4015 7.42188 41.2109 7.42188H42.4702L41.2361 16.2109H46.8872L45.7886 7.42188H47.0703C47.8798 7.42188 48.5352 6.76651 48.5352 5.95703Z" fill="#F37021"/>
</svg>
