<svg width="61" height="50" viewBox="0 0 61 50" fill="none" xmlns="http://www.w3.org/2000/svg">
<path d="M18.5089 2.59763C19.555 2.11459 19.4048 1.37018 19.2504 1.0015L19.137 0.780729C18.6772 -0.117081 17.9156 -0.053428 17.4813 0.0721123C7.41169 4.42944 0.299924 14.2979 0 25.8982C0.0539431 26.6849 0.470972 26.8764 0.754125 26.9099H1.43293C1.75001 26.8505 2.18519 26.5928 2.26512 25.6471C2.27257 25.5709 2.28415 25.5104 2.29631 25.4495C2.95932 15.1989 9.38944 6.54823 18.3819 2.66413C18.4289 2.64226 18.4545 2.62313 18.5089 2.59763Z" fill="#F37021"/>
<path d="M43.4721 0.207355C42.3023 -0.256163 41.7649 0.285426 41.577 0.591431L41.3298 1.07407C41.2051 1.39489 41.1121 2.10252 42.3433 2.69158C42.3713 2.70512 42.3879 2.71767 42.414 2.73199C51.3632 6.66729 57.7348 15.3417 58.3485 25.5904C58.3523 25.5904 58.3653 25.5821 58.3653 25.5821C58.3653 25.5821 58.3207 26.9323 59.4384 26.9323H59.7433C60.0446 26.9082 60.5783 26.7278 60.6341 25.8909C60.3365 14.4169 53.3699 4.63314 43.4721 0.207355Z" fill="#F37021"/>
<path d="M42.3879 30.3783C42.3748 30.6164 42.3507 30.8563 42.3191 31.098C41.5511 37.0753 36.4571 41.6997 30.2701 41.6997C24.5643 41.6997 19.8001 37.7654 18.4926 32.4641C17.128 25.9056 21.4947 21.1028 21.8216 20.7522C22.4269 20.1055 23.0161 19.5401 23.4605 19.1333L23.4624 19.1449C23.8139 18.8162 24.1514 18.521 24.4592 18.2592H24.4611L24.4657 18.2555C24.4657 18.2555 26.0465 16.9671 25.7099 18.2546C25.2069 19.9944 24.4927 23.1137 25.0757 25.198C25.0757 25.198 25.0804 25.2115 25.0804 25.2143C25.1073 25.3087 25.1464 25.3905 25.1789 25.477C25.3574 25.8908 25.8084 26.6068 26.7839 26.5083C27.0582 26.5083 27.7314 25.9652 27.9369 25.2245C29.0407 20.7867 27.9899 16.6482 27.1261 14.3086C27.1261 14.3077 27.1261 14.3077 27.1261 14.3077C26.8117 13.3917 26.8917 12.9384 26.8964 12.9203C26.9958 12.6938 27.1948 12.5106 27.5993 12.6348C27.6597 12.665 27.7258 12.6877 27.7853 12.7193L27.7834 12.7175C27.8745 12.7592 27.9601 12.7909 28.0689 12.862C28.134 12.9039 28.1841 12.929 28.2363 12.9545C28.6873 13.2135 29.4312 13.6905 30.2848 14.439C30.2905 14.4409 30.2905 14.4428 30.2922 14.4437C30.295 14.4465 30.2969 14.4483 30.2978 14.4512C32.4324 16.3245 35.2109 19.8961 35.7316 25.9241C35.7353 25.9241 35.7409 25.9213 35.7409 25.9213C35.7409 25.9213 35.7819 27.0065 36.4587 27.2892C37.1357 27.5747 37.6118 26.5415 37.6843 26.19C37.7085 26.0877 37.7327 25.9724 37.7569 25.8403C37.7569 25.8301 37.8108 25.2272 37.8015 24.3665C37.7605 22.782 37.3942 21.5662 36.8269 20.514L36.8454 20.5242C36.8454 20.5242 36.7636 20.2378 37.0575 20.0751C37.197 19.9808 37.4201 19.977 37.6321 20.1713C38.6866 21.1328 40.0703 22.4885 40.7063 23.5068C41.6082 25.0997 42.5048 27.3969 42.4042 30.1484C42.3972 30.224 42.3935 30.3021 42.3879 30.3783ZM30.3175 4.29419C17.6967 4.29419 7.46429 14.5248 7.46429 27.1462C7.46429 39.7675 17.6967 50 30.3175 50C42.9385 50 53.1709 39.7675 53.1709 27.1462C53.1708 14.5247 42.9384 4.29419 30.3175 4.29419Z" fill="#F37021"/>
</svg>
