<svg width="46" height="50" viewBox="0 0 46 50" fill="none" xmlns="http://www.w3.org/2000/svg">
<path d="M1.56199 17.9792C1.56199 12.3438 5.71523 7.75942 10.8207 7.75942H12.4959V6.03528H11.3511C5.09211 6.03444 0 11.6551 0 18.5639C0 22.3898 1.55246 25.9559 4.2604 28.3472L10.153 33.5508V30.5811L4.95864 25.8906C2.79984 23.9396 1.56199 21.0558 1.56199 17.9792Z" fill="#F37021"/>
<path d="M16.401 5.17238H17.963V3.44824H15.62C14.757 3.44824 14.058 4.21981 14.058 5.17238V9.48273H16.401V5.17238Z" fill="#F37021"/>
<path d="M27.4138 12.9311C27.609 11.8741 28.1635 10.9674 28.9209 10.3448H25.7729V12.9311H27.4138Z" fill="#F37021"/>
<path d="M21.8679 31.0344C21.8679 31.5105 21.5182 31.8965 21.0869 31.8965C20.6556 31.8965 20.3059 31.5105 20.3059 31.0344C20.3059 30.5584 20.6556 30.1724 21.0869 30.1724C21.5182 30.1724 21.8679 30.5584 21.8679 31.0344Z" fill="#F37021"/>
<path d="M17.963 12.931H24.2109V14.6552H17.963V12.931Z" fill="#F37021"/>
<path d="M22.6489 3.44828L30.5409 1.86473C30.9455 1.78349 31.2399 1.39413 31.2399 0.93952C31.2399 0.420511 30.8589 0 30.3887 0H28.8969L19.5249 1.72414V5.17241H22.6489V3.44828Z" fill="#F37021"/>
<path d="M32.0209 6.89661H17.963V11.207H24.211V8.62074H32.0209V6.89661Z" fill="#F37021"/>
<path d="M33.5828 13.7931C33.5828 15.2213 32.5337 16.3793 31.2398 16.3793C29.9459 16.3793 28.8968 15.2213 28.8968 13.7931C28.8968 12.3649 29.9459 11.2069 31.2398 11.2069C32.5337 11.2069 33.5828 12.3649 33.5828 13.7931Z" fill="#F37021"/>
<path d="M32.0208 32.8811V41.6378L39.441 44.6163L41.6402 34.2975L32.0208 32.8811Z" fill="#F37021"/>
<path d="M29.9387 20.6896L24.7318 16.3793H17.4419L12.235 20.6896H29.9387Z" fill="#F37021"/>
<path d="M26.554 22.4138H11.7151V47.4138C11.7151 48.8395 12.7664 50 14.058 50H28.116C29.4076 50 30.459 48.8395 30.459 47.4138V22.4138H26.554ZM28.897 47.4138H13.2771V25H28.897V47.4138Z" fill="#F37021"/>
<path d="M44.6793 32.7587H44.0631C43.7748 32.7587 43.5265 32.975 43.4609 33.2844L40.6283 46.5749C40.6172 46.6267 40.6119 46.6785 40.6119 46.7311C40.6119 47.1078 40.8891 47.4138 41.2304 47.4138H41.8467C42.135 47.4138 42.3832 47.1975 42.4488 46.8881L45.2815 33.5976C45.2925 33.5458 45.2979 33.4949 45.2979 33.4414C45.2979 33.0655 45.0206 32.7587 44.6793 32.7587Z" fill="#F37021"/>
<path d="M27.335 26.7241H14.839V45.6897H27.335V26.7241ZM21.087 28.4483C22.3786 28.4483 23.43 29.6088 23.43 31.0345C23.43 32.4602 22.3786 33.6207 21.087 33.6207C19.7954 33.6207 18.744 32.4602 18.744 31.0345C18.744 29.6088 19.7954 28.4483 21.087 28.4483ZM25.773 43.9655H16.401V42.2414H25.773V43.9655ZM25.773 40.5172H16.401V38.7931H25.773V40.5172ZM25.773 37.069H16.401V35.3448H25.773V37.069Z" fill="#F37021"/>
</svg>
