<svg width="141" height="120" viewBox="0 0 141 120" fill="none" xmlns="http://www.w3.org/2000/svg">
<path d="M0.00025641 89.7441V68.5071H19.7303V89.7441C19.7303 90.0647 19.6069 90.225 19.3603 90.225C19.1136 90.225 18.9669 89.7951 18.9203 88.9353C18.6458 84.9207 18.0604 80.9389 17.1703 77.0325C16.4236 73.4912 15.7569 71.3052 15.1703 70.4745C14.9176 70.1178 14.5854 69.838 14.2054 69.662C13.8254 69.4859 13.4105 69.4194 13.0003 69.4689V117.725H15.3703C15.6203 117.725 15.7503 117.9 15.7503 118.239C15.7503 118.577 15.6303 118.676 15.3803 118.676H4.12026C3.87359 118.676 3.75026 118.53 3.75026 118.239C3.75026 117.9 3.88026 117.725 4.13026 117.725H6.75026V69.4689C6.34128 69.4093 5.92513 69.4654 5.54167 69.6319C5.15821 69.7984 4.82029 70.0697 4.56026 70.4198C3.97359 71.2797 3.30692 73.4657 2.56026 76.9778C1.66758 80.8984 1.08213 84.8951 0.810256 88.9243C0.770256 89.7842 0.62359 90.2141 0.370256 90.2141C0.116923 90.2141 -0.00641026 90.0574 0.00025641 89.7441Z" fill="white"/>
<path d="M23.1103 117.725V83.8419H21.8603C21.5669 83.8419 21.4203 83.6961 21.4203 83.4047C21.4203 83.1132 21.5669 82.942 21.8603 82.891H28.4803V87.3285C29.5603 84.1443 30.8503 82.5521 32.3503 82.5521C32.9191 82.5748 33.4726 82.7604 33.9552 83.0903C34.4378 83.4203 34.8327 83.8829 35.1003 84.4321C35.8701 85.7682 36.2599 87.324 36.2203 88.9025C36.2638 90.173 35.9685 91.4299 35.3703 92.5203C35.1575 92.9521 34.8435 93.3144 34.4604 93.5698C34.0773 93.8253 33.6389 93.9648 33.1903 93.974C31.6303 93.974 30.8503 92.5166 30.8503 89.602C30.9057 88.1344 31.339 86.7137 32.1003 85.5032C32.3474 85.1404 32.5181 84.7224 32.6003 84.2791C32.6003 83.7763 32.3469 83.5249 31.8403 83.5249C30.9536 83.5249 30.1703 84.5487 29.4903 86.5962C28.7839 88.8759 28.4456 91.2725 28.4903 93.6789V117.725H30.0003C30.3003 117.725 30.4503 117.9 30.4503 118.239C30.4503 118.577 30.3003 118.676 30.0103 118.676H21.8003C21.5536 118.676 21.4303 118.53 21.4303 118.239C21.4303 117.9 21.5603 117.725 21.8103 117.725H23.1103Z" fill="white"/>
<path d="M45.9003 96.16V86.5963C45.9003 84.505 45.0469 83.4593 43.3403 83.4593C42.4585 83.4205 41.5886 83.6914 40.858 84.2323C40.1273 84.7733 39.5744 85.5557 39.2803 86.4651C39.7805 86.1833 40.3377 86.0442 40.9003 86.0607C41.2802 86.0546 41.6566 86.1406 42.0024 86.3126C42.3482 86.4846 42.6549 86.7382 42.9003 87.0553C43.4505 87.7518 43.7398 88.6496 43.7103 89.5692C43.7103 91.9592 42.6903 93.1543 40.6503 93.1543C38.6103 93.1543 37.5703 91.8135 37.5303 89.132C37.5107 88.2135 37.6888 87.3028 38.05 86.4732C38.4113 85.6436 38.9457 84.9183 39.6103 84.3556C41.1533 83.0684 43.061 82.4146 45.0003 82.5084C49.1869 82.5084 51.2803 84.1188 51.2803 87.3395V116.02C51.2803 116.792 51.5336 117.178 52.0403 117.178C52.7069 117.178 53.2603 116.537 53.7003 115.255C53.8303 115.036 53.9503 114.927 54.0803 114.927C54.2103 114.927 54.4603 115.058 54.4603 115.331C54.4157 115.767 54.2864 116.188 54.0812 116.565C53.876 116.942 53.5995 117.266 53.2703 117.517C52.3473 118.487 51.1104 119.018 49.8303 118.993C48.8729 119.069 47.9261 118.734 47.1919 118.058C46.4578 117.382 45.9942 116.419 45.9003 115.375C44.3603 117.787 42.6536 118.993 40.7803 118.993C38.4869 118.993 37.3403 117.834 37.3403 115.517V102.948C37.2961 102.387 37.3566 101.823 37.5182 101.29C37.6798 100.756 37.9391 100.264 38.2803 99.8434C39.4762 98.8713 40.8353 98.1657 42.2803 97.7667C43.5302 97.3559 44.7422 96.818 45.9003 96.16V96.16ZM45.9003 110.741V97.253C45.0115 97.5418 44.1874 98.0294 43.4803 98.6848C42.9197 99.504 42.6497 100.517 42.7203 101.538V115.615C42.7203 116.526 42.9969 116.982 43.5503 116.982C44.1036 116.982 44.6136 116.337 45.0803 115.047C45.639 113.71 45.9191 112.254 45.9003 110.784V110.741Z" fill="white"/>
<path d="M59.0003 115.834L55.5803 83.8637H54.7103C54.4203 83.8637 54.2703 83.6888 54.2703 83.35C54.2703 83.0112 54.4203 82.9128 54.7103 82.9128H62.0003C62.2903 82.9128 62.4403 83.0549 62.4403 83.35C62.4403 83.6451 62.2903 83.8637 62.0003 83.8637H60.8903L63.7003 109.669L66.8203 87.416C66.8605 87.1009 66.8805 86.7832 66.8803 86.4651C66.926 85.8777 66.7916 85.2904 66.4983 84.7957C66.205 84.301 65.7694 83.9269 65.2603 83.7326C65.0136 83.6451 64.8903 83.4848 64.8903 83.2516C64.8855 83.2059 64.8902 83.1595 64.9041 83.116C64.918 83.0725 64.9407 83.033 64.9705 83.0005C65.0003 82.9679 65.0364 82.9431 65.0762 82.9279C65.116 82.9127 65.1584 82.9076 65.2003 82.9128H69.2603C69.4703 82.9128 69.5703 83.0002 69.5703 83.1861C69.5703 83.3719 69.4003 83.6233 69.0703 83.7981C68.3636 84.075 67.8636 85.1899 67.5703 87.1427L63.5703 115.473C63.4753 116.398 63.308 117.312 63.0703 118.206C63.009 118.363 62.903 118.495 62.7679 118.582C62.6329 118.668 62.4759 118.705 62.3203 118.687H59.8903C59.5169 118.679 59.2203 117.729 59.0003 115.834Z" fill="white"/>
<path d="M70.6902 68.5071H77.3102V101.483L82.0602 87.2739C82.2463 86.7539 82.3511 86.2033 82.3702 85.6453C82.3702 84.5159 81.7669 83.9257 80.5602 83.8747C79.9736 83.8747 79.6836 83.7289 79.6902 83.4375C79.6969 83.146 79.8236 82.9748 80.0702 82.9238H86.8802C87.1302 82.9238 87.2502 83.0877 87.2502 83.4047C87.2502 83.7216 87.1002 83.8091 86.8102 83.8091C86.0392 83.7524 85.2718 83.9669 84.6202 84.4212C83.6316 85.4993 82.9031 86.8288 82.5002 88.2904L80.6302 93.6024L87.5602 117.725H88.6202C88.9102 117.725 89.0602 117.9 89.0602 118.239C89.0602 118.577 88.9102 118.676 88.6202 118.676H80.6902C80.3969 118.676 80.2502 118.53 80.2502 118.239C80.2502 117.9 80.4002 117.725 80.6902 117.725H82.1902L77.3102 101.406V117.725H78.5002C78.7502 117.725 78.8802 117.9 78.8802 118.239C78.8802 118.577 78.7602 118.676 78.5102 118.676H70.6902C70.3969 118.676 70.2502 118.53 70.2502 118.239C70.2502 117.9 70.4002 117.725 70.6902 117.725H71.8102V69.4689H70.6902C70.4436 69.4689 70.3202 69.3232 70.3202 69.0317C70.3202 68.682 70.4402 68.5071 70.6902 68.5071Z" fill="white"/>
<path d="M92.1203 117.725V83.8419H90.8703C90.5769 83.8419 90.4303 83.6961 90.4303 83.4047C90.4303 83.1132 90.5769 82.942 90.8703 82.891H97.4903V87.3285C98.5703 84.1443 99.8603 82.5521 101.36 82.5521C101.929 82.5748 102.483 82.7604 102.965 83.0903C103.448 83.4203 103.843 83.8829 104.11 84.4321C104.88 85.7682 105.27 87.324 105.23 88.9025C105.274 90.173 104.978 91.4299 104.38 92.5203C104.167 92.9521 103.853 93.3144 103.47 93.5698C103.087 93.8253 102.649 93.9648 102.2 93.974C100.64 93.974 99.8603 92.5166 99.8603 89.602C99.9157 88.1344 100.349 86.7137 101.11 85.5032C101.357 85.1404 101.528 84.7224 101.61 84.2791C101.61 83.7763 101.357 83.5249 100.85 83.5249C99.9636 83.5249 99.1803 84.5487 98.5003 86.5962C97.7939 88.8759 97.4556 91.2725 97.5003 93.6789V117.725H99.0003C99.3003 117.725 99.4503 117.9 99.4503 118.239C99.4503 118.577 99.3003 118.676 99.0103 118.676H90.8003C90.5536 118.676 90.4303 118.53 90.4303 118.239C90.4303 117.9 90.5603 117.725 90.8103 117.725H92.1203Z" fill="white"/>
<path d="M121.09 96.947V104.172C121.09 114.031 118.757 118.96 114.09 118.96C109.424 118.96 107.06 113.714 107 103.221V96.6628C107 92.1669 107.614 88.6802 108.84 86.2028C110.067 83.7253 111.784 82.4866 113.99 82.4866C116.197 82.4866 117.934 83.78 119.2 86.3667C120.467 88.9535 121.097 92.4802 121.09 96.947ZM115.59 115.003V86.793C115.59 84.5706 115.017 83.4593 113.87 83.4593C112.85 83.4593 112.34 84.2755 112.34 85.9077V113.91C112.34 116.723 112.914 118.129 114.06 118.129C115.087 118.129 115.6 117.087 115.6 115.003H115.59Z" fill="white"/>
<path d="M131.83 96.16V86.5962C131.83 84.505 130.977 83.4593 129.27 83.4593C128.389 83.4205 127.519 83.6914 126.788 84.2323C126.057 84.7732 125.504 85.5557 125.21 86.4651C125.71 86.1833 126.268 86.0441 126.83 86.0607C127.21 86.0546 127.587 86.1406 127.932 86.3126C128.278 86.4846 128.585 86.7382 128.83 87.0553C129.38 87.7523 129.669 88.6498 129.64 89.5692C129.64 91.9592 128.62 93.1542 126.58 93.1542C124.54 93.1542 123.5 91.8135 123.46 89.132C123.441 88.2135 123.619 87.3028 123.98 86.4732C124.341 85.6436 124.876 84.9182 125.54 84.3556C127.081 83.0708 128.984 82.4171 130.92 82.5084C135.107 82.5084 137.2 84.1188 137.2 87.3395V116.02C137.2 116.792 137.454 117.178 137.96 117.178C138.627 117.178 139.18 116.537 139.62 115.255C139.75 115.036 139.87 114.927 140 114.927C140.13 114.927 140.38 115.058 140.38 115.331C140.336 115.767 140.206 116.188 140.001 116.565C139.796 116.942 139.519 117.266 139.19 117.517C138.267 118.487 137.03 119.018 135.75 118.993C134.793 119.069 133.846 118.734 133.112 118.058C132.378 117.382 131.914 116.419 131.82 115.375C130.28 117.787 128.574 118.993 126.7 118.993C124.407 118.993 123.26 117.834 123.26 115.517V102.948C123.216 102.387 123.277 101.823 123.438 101.29C123.6 100.756 123.859 100.264 124.2 99.8434C125.396 98.8716 126.755 98.166 128.2 97.7667C129.454 97.3564 130.669 96.8185 131.83 96.16V96.16ZM131.83 110.741V97.253C130.942 97.5418 130.117 98.0294 129.41 98.6848C128.85 99.5044 128.581 100.518 128.65 101.538V115.615C128.65 116.526 128.927 116.982 129.48 116.982C130.034 116.982 130.544 116.337 131.01 115.047C131.569 113.71 131.849 112.254 131.83 110.784V110.741Z" fill="white"/>
<path d="M116.29 22.4043C116.29 22.4043 116.79 22.0437 114.62 19.3002C112.45 16.5568 109.18 14.0866 110.02 11.9006C110.02 11.9006 111.19 5.34262 112.19 3.39708C113.19 1.45154 109.43 7.14607 108.09 7.87838C107.911 6.08614 108.109 4.27275 108.67 2.57733C109.59 0.29296 107.58 2.30408 105.16 6.05307C102.74 9.80206 102.32 1.57177 92.6203 2.6757C92.6203 2.6757 96.9703 2.94895 97.9703 4.41357C98.9703 5.87819 99.1403 9.35393 85.3403 2.31501C71.5403 -4.72391 65.5303 6.53399 65.5303 6.53399C65.5303 6.53399 73.3903 -0.90934 81.6703 5.12402C89.9503 11.1574 75.8103 4.21683 71.3003 10.0644C71.3003 10.0644 74.8103 8.32651 74.9003 11.2557C74.9903 14.185 65.0303 15.9119 59.9003 10.2502C59.9003 10.2502 68.8503 22.1311 77.9003 16.1961C77.9003 16.1961 74.3003 20.1309 66.9003 19.3986C59.5003 18.6663 57.2803 23.0492 57.2803 23.0492C57.2803 23.0492 60.1203 20.3058 62.8803 22.6885C65.6403 25.0713 63.7203 29.4542 53.4303 25.7926C47.4225 23.5935 40.8732 23.9844 35.1203 26.8856C35.1203 26.8856 46.9103 23.4099 48.1203 30.5472C49.3303 37.6845 39.1203 34.6569 39.1203 34.6569C40.1277 35.6045 41.3407 36.2539 42.6433 36.5428C43.9459 36.8318 45.2945 36.7507 46.5603 36.3073C46.5603 36.3073 42.3003 38.4933 35.1003 37.8594C35.1003 37.8594 94.1003 55.7736 80.7103 77.2074C80.7103 77.2074 86.7803 72.3654 85.4403 56.0032C85.4403 56.0032 91.0403 44.5813 94.8103 37.9031C98.5803 31.2249 100.33 39.2365 105.01 38.6135C109.69 37.9905 117.22 46.1224 115.46 48.7784C115.46 48.7784 120.14 52.6149 121.4 49.4124C121.4 49.4124 124.58 49.1391 124.66 46.3082C124.66 46.3082 129.26 46.3083 123.16 35.5203C117.06 24.7324 118 22.4918 116.29 22.4043ZM110.74 24.5903C110.691 24.2674 110.607 23.9519 110.49 23.6504C111.354 24.2816 112.075 25.1187 112.6 26.0987C110.93 25.7489 110.84 25.2243 110.74 24.6341V24.5903Z" fill="white"/>
</svg>
