<svg width="141" height="120" viewBox="0 0 141 120" fill="none" xmlns="http://www.w3.org/2000/svg">
<path d="M1.22696e-05 89.8371V68.6001H19.73V89.8371C19.73 90.1577 19.6067 90.318 19.36 90.318C19.1133 90.318 18.9667 89.8881 18.92 89.0283C18.6456 85.0137 18.0602 81.0319 17.17 77.1255C16.4233 73.5842 15.7567 71.3982 15.17 70.5675C14.9173 70.2108 14.5851 69.9311 14.2052 69.755C13.8252 69.5789 13.4102 69.5124 13 69.5619V117.818H15.37C15.62 117.818 15.75 117.993 15.75 118.332C15.75 118.67 15.63 118.769 15.38 118.769H4.12001C3.87335 118.769 3.75001 118.623 3.75001 118.332C3.75001 117.993 3.88001 117.818 4.13001 117.818H6.75001V69.5619C6.34103 69.5023 5.92489 69.5584 5.54143 69.7249C5.15797 69.8914 4.82004 70.1627 4.56001 70.5128C3.97335 71.3727 3.30668 73.5587 2.56001 77.0708C1.66733 80.9915 1.08188 84.9881 0.810012 89.0173C0.770012 89.8772 0.623346 90.3071 0.370012 90.3071C0.116679 90.3071 -0.0066544 90.1504 1.22696e-05 89.8371Z" fill="#231F20"/>
<path d="M23.11 117.818V83.9349H21.86C21.5667 83.9349 21.42 83.7892 21.42 83.4977C21.42 83.2062 21.5667 83.035 21.86 82.984H28.48V87.4216C29.56 84.2373 30.85 82.6452 32.35 82.6452C32.9189 82.6678 33.4723 82.8534 33.9549 83.1834C34.4375 83.5133 34.8324 83.976 35.1 84.5251C35.8698 85.8613 36.2596 87.4171 36.22 88.9955C36.2635 90.266 35.9682 91.5229 35.37 92.6133C35.1572 93.0452 34.8432 93.4074 34.4601 93.6628C34.077 93.9183 33.6387 94.0578 33.19 94.067C31.63 94.067 30.85 92.6097 30.85 89.695C30.9055 88.2274 31.3387 86.8067 32.1 85.5963C32.3471 85.2334 32.5178 84.8154 32.6 84.3721C32.6 83.8693 32.3467 83.6179 31.84 83.6179C30.9533 83.6179 30.17 84.6417 29.49 86.6893C28.7837 88.969 28.4453 91.3655 28.49 93.7719V117.818H30C30.3 117.818 30.45 117.993 30.45 118.332C30.45 118.67 30.3 118.769 30.01 118.769H21.8C21.5533 118.769 21.43 118.623 21.43 118.332C21.43 117.993 21.56 117.818 21.81 117.818H23.11Z" fill="#231F20"/>
<path d="M45.9 96.253V86.6893C45.9 84.598 45.0467 83.5523 43.34 83.5523C42.4583 83.5135 41.5883 83.7844 40.8577 84.3253C40.1271 84.8663 39.5742 85.6487 39.28 86.5581C39.7802 86.2763 40.3375 86.1372 40.9 86.1537C41.2799 86.1476 41.6563 86.2336 42.0022 86.4056C42.348 86.5776 42.6546 86.8312 42.9 87.1483C43.4502 87.8448 43.7395 88.7426 43.71 89.6622C43.71 92.0522 42.69 93.2473 40.65 93.2473C38.61 93.2473 37.57 91.9065 37.53 89.225C37.5105 88.3065 37.6885 87.3958 38.0498 86.5662C38.4111 85.7366 38.9455 85.0113 39.61 84.4486C41.153 83.1614 43.0608 82.5076 45 82.6014C49.1867 82.6014 51.28 84.2118 51.28 87.4325V116.113C51.28 116.885 51.5334 117.271 52.04 117.271C52.7067 117.271 53.26 116.63 53.7 115.348C53.83 115.129 53.95 115.02 54.08 115.02C54.21 115.02 54.46 115.151 54.46 115.424C54.4154 115.86 54.2862 116.281 54.081 116.658C53.8757 117.035 53.5993 117.359 53.27 117.61C52.347 118.58 51.1101 119.111 49.83 119.086C48.8727 119.162 47.9259 118.827 47.1917 118.151C46.4575 117.475 45.994 116.512 45.9 115.468C44.36 117.88 42.6534 119.086 40.78 119.086C38.4867 119.086 37.34 117.927 37.34 115.61V103.041C37.2958 102.48 37.3563 101.916 37.518 101.383C37.6796 100.849 37.9388 100.357 38.28 99.9364C39.4759 98.9643 40.835 98.2587 42.28 97.8597C43.53 97.4489 44.7419 96.911 45.9 96.253ZM45.9 110.834V97.346C45.0113 97.6348 44.1872 98.1224 43.48 98.7778C42.9194 99.597 42.6494 100.61 42.72 101.631V115.708C42.72 116.619 42.9967 117.075 43.55 117.075C44.1034 117.075 44.6134 116.43 45.08 115.14C45.6388 113.803 45.9189 112.347 45.9 110.877V110.834Z" fill="#231F20"/>
<path d="M59 115.927L55.58 83.9567H54.71C54.42 83.9567 54.27 83.7819 54.27 83.443C54.27 83.1042 54.42 83.0058 54.71 83.0058H62C62.29 83.0058 62.44 83.1479 62.44 83.443C62.44 83.7381 62.29 83.9567 62 83.9567H60.89L63.7 109.762L66.82 87.509C66.8602 87.1939 66.8803 86.8762 66.88 86.5581C66.9257 85.9707 66.7913 85.3834 66.498 84.8887C66.2047 84.394 65.7692 84.02 65.26 83.8256C65.0133 83.7381 64.89 83.5778 64.89 83.3447C64.8852 83.2989 64.8899 83.2525 64.9038 83.209C64.9177 83.1656 64.9404 83.1261 64.9702 83.0935C65 83.0609 65.0361 83.0361 65.0759 83.0209C65.1157 83.0058 65.1581 83.0006 65.2 83.0058H69.26C69.47 83.0058 69.57 83.0933 69.57 83.2791C69.57 83.4649 69.4 83.7163 69.07 83.8912C68.3633 84.1681 67.8633 85.2829 67.57 87.2357L63.57 115.566C63.475 116.491 63.3078 117.405 63.07 118.299C63.0087 118.456 62.9027 118.588 62.7677 118.675C62.6326 118.761 62.4757 118.798 62.32 118.78H59.89C59.5167 118.772 59.22 117.822 59 115.927Z" fill="#231F20"/>
<path d="M70.69 68.6001H77.31V101.576L82.06 87.3669C82.2461 86.8469 82.3509 86.2963 82.37 85.7383C82.37 84.6089 81.7667 84.0187 80.56 83.9677C79.9733 83.9677 79.6833 83.8219 79.69 83.5305C79.6967 83.239 79.8233 83.0678 80.07 83.0168H86.88C87.13 83.0168 87.25 83.1807 87.25 83.4977C87.25 83.8147 87.1 83.9021 86.81 83.9021C86.0389 83.8454 85.2715 84.0599 84.62 84.5142C83.6313 85.5923 82.9029 86.9218 82.5 88.3834L80.63 93.6954L87.56 117.818H88.62C88.91 117.818 89.06 117.993 89.06 118.332C89.06 118.67 88.91 118.769 88.62 118.769H80.69C80.3967 118.769 80.25 118.623 80.25 118.332C80.25 117.993 80.4 117.818 80.69 117.818H82.19L77.31 101.499V117.818H78.5C78.75 117.818 78.88 117.993 78.88 118.332C78.88 118.67 78.76 118.769 78.51 118.769H70.69C70.3967 118.769 70.25 118.623 70.25 118.332C70.25 117.993 70.4 117.818 70.69 117.818H71.81V69.5619H70.69C70.4433 69.5619 70.32 69.4162 70.32 69.1247C70.32 68.775 70.44 68.6001 70.69 68.6001Z" fill="#231F20"/>
<path d="M92.12 117.818V83.9349H90.87C90.5767 83.9349 90.43 83.7892 90.43 83.4977C90.43 83.2062 90.5767 83.035 90.87 82.984H97.49V87.4216C98.57 84.2373 99.86 82.6452 101.36 82.6452C101.929 82.6678 102.482 82.8534 102.965 83.1834C103.448 83.5133 103.842 83.976 104.11 84.5251C104.88 85.8613 105.27 87.4171 105.23 88.9955C105.274 90.266 104.978 91.5229 104.38 92.6133C104.167 93.0452 103.853 93.4074 103.47 93.6628C103.087 93.9183 102.649 94.0578 102.2 94.067C100.64 94.067 99.86 92.6097 99.86 89.695C99.9155 88.2274 100.349 86.8067 101.11 85.5963C101.357 85.2334 101.528 84.8154 101.61 84.3721C101.61 83.8693 101.357 83.6179 100.85 83.6179C99.9634 83.6179 99.18 84.6417 98.5 86.6893C97.7937 88.969 97.4553 91.3655 97.5 93.7719V117.818H99C99.3 117.818 99.45 117.993 99.45 118.332C99.45 118.67 99.3 118.769 99.01 118.769H90.8C90.5534 118.769 90.43 118.623 90.43 118.332C90.43 117.993 90.56 117.818 90.81 117.818H92.12Z" fill="#231F20"/>
<path d="M121.09 97.04V104.265C121.09 114.124 118.757 119.053 114.09 119.053C109.423 119.053 107.06 113.807 107 103.314V96.7558C107 92.2599 107.613 88.7732 108.84 86.2958C110.067 83.8183 111.783 82.5796 113.99 82.5796C116.197 82.5796 117.933 83.873 119.2 86.4597C120.467 89.0465 121.097 92.5732 121.09 97.04ZM115.59 115.096V86.886C115.59 84.6636 115.017 83.5523 113.87 83.5523C112.85 83.5523 112.34 84.3685 112.34 86.0007V114.003C112.34 116.816 112.913 118.222 114.06 118.222C115.087 118.222 115.6 117.18 115.6 115.096H115.59Z" fill="#231F20"/>
<path d="M131.83 96.253V86.6893C131.83 84.598 130.977 83.5523 129.27 83.5523C128.388 83.5135 127.518 83.7844 126.788 84.3253C126.057 84.8663 125.504 85.6487 125.21 86.5581C125.71 86.2763 126.267 86.1372 126.83 86.1537C127.21 86.1476 127.586 86.2336 127.932 86.4056C128.278 86.5776 128.585 86.8312 128.83 87.1483C129.379 87.8453 129.669 88.7428 129.64 89.6622C129.64 92.0522 128.62 93.2473 126.58 93.2473C124.54 93.2473 123.5 91.9065 123.46 89.225C123.44 88.3065 123.619 87.3958 123.98 86.5662C124.341 85.7366 124.875 85.0113 125.54 84.4486C127.08 83.1638 128.984 82.5101 130.92 82.6014C135.107 82.6014 137.2 84.2118 137.2 87.4325V116.113C137.2 116.885 137.453 117.271 137.96 117.271C138.627 117.271 139.18 116.63 139.62 115.348C139.75 115.129 139.87 115.02 140 115.02C140.13 115.02 140.38 115.151 140.38 115.424C140.335 115.86 140.206 116.281 140.001 116.658C139.796 117.035 139.519 117.359 139.19 117.61C138.267 118.58 137.03 119.111 135.75 119.086C134.793 119.162 133.846 118.827 133.112 118.151C132.377 117.475 131.914 116.512 131.82 115.468C130.28 117.88 128.573 119.086 126.7 119.086C124.407 119.086 123.26 117.927 123.26 115.61V103.041C123.216 102.48 123.276 101.916 123.438 101.383C123.6 100.849 123.859 100.357 124.2 99.9364C125.396 98.9646 126.755 98.259 128.2 97.8597C129.453 97.4494 130.669 96.9115 131.83 96.253ZM131.83 110.834V97.346C130.941 97.6348 130.117 98.1224 129.41 98.7778C128.85 99.5975 128.58 100.611 128.65 101.631V115.708C128.65 116.619 128.927 117.075 129.48 117.075C130.033 117.075 130.543 116.43 131.01 115.14C131.569 113.803 131.849 112.347 131.83 110.877V110.834Z" fill="#231F20"/>
<path d="M116.29 22.4974C116.29 22.4974 116.79 22.1367 114.62 19.3932C112.45 16.6498 109.18 14.1796 110.02 11.9936C110.02 11.9936 111.19 5.43563 112.19 3.49009C113.19 1.54455 109.43 7.23908 108.09 7.97139C107.91 6.17915 108.109 4.36576 108.67 2.67034C109.59 0.385974 107.58 2.39709 105.16 6.14608C102.74 9.89507 102.32 1.66478 92.62 2.76871C92.62 2.76871 96.97 3.04196 97.97 4.50658C98.97 5.9712 99.14 9.44694 85.34 2.40802C71.54 -4.6309 65.53 6.627 65.53 6.627C65.53 6.627 73.39 -0.816326 81.67 5.21703C89.95 11.2504 75.81 4.30984 71.3 10.1574C71.3 10.1574 74.81 8.41952 74.9 11.3488C74.99 14.278 65.03 16.0049 59.9 10.3432C59.9 10.3432 68.85 22.2241 77.9 16.2891C77.9 16.2891 74.3 20.2239 66.9 19.4916C59.5 18.7593 57.28 23.1422 57.28 23.1422C57.28 23.1422 60.12 20.3988 62.88 22.7815C65.64 25.1643 63.72 29.5472 53.43 25.8857C47.4222 23.6865 40.8729 24.0774 35.12 26.9787C35.12 26.9787 46.91 23.5029 48.12 30.6402C49.33 37.7775 39.12 34.7499 39.12 34.7499C40.1274 35.6976 41.3404 36.3469 42.643 36.6359C43.9456 36.9248 45.2943 36.8437 46.56 36.4003C46.56 36.4003 42.3 38.5863 35.1 37.9524C35.1 37.9524 94.1 55.8666 80.71 77.3004C80.71 77.3004 86.78 72.4584 85.44 56.0962C85.44 56.0962 91.04 44.6743 94.81 37.9961C98.58 31.3179 100.33 39.3296 105.01 38.7065C109.69 38.0835 117.22 46.2155 115.46 48.8714C115.46 48.8714 120.14 52.7079 121.4 49.5054C121.4 49.5054 124.58 49.2321 124.66 46.4013C124.66 46.4013 129.26 46.4013 123.16 35.6134C117.06 24.8254 118 22.5848 116.29 22.4974ZM110.74 24.6834C110.691 24.3604 110.607 24.0449 110.49 23.7434C111.354 24.3746 112.075 25.2117 112.6 26.1917C110.93 25.8419 110.84 25.3173 110.74 24.7271V24.6834Z" fill="#010101"/>
</svg>
